# xmcd CD database file
#
# Track frame offsets:
#	150
#	45843
#	66173
#	88690
#	124952
#	149055
#	167169
#	187272
#	207136
#	238515
#	265213
#	288539
#	312055
#
# Disc length: 4518 seconds
#
# Revision: 0
# Processed by: cddbd v1.5.2PL0 Copyright (c) Steve Scherf et al.
# Submitted via: CDex 1.70beta2
#
DISCID=c511a40d
DTITLE=Thomas Mahler - Equilibrium
DYEAR=2009
DGENRE=New Age
TTITLE0=Cosmic Breath
TTITLE1=Light enttering the Sacred Dome
TTITLE2=Stones on te Shore
TTITLE3=Shakti
TTITLE4=Ocean Flight
TTITLE5=Dreaming Cat of Apricale
TTITLE6=Shiva´s Bells
TTITLE7=Calling the Rain
TTITLE8=Progress
TTITLE9=Perseverance
TTITLE10=Golden Heart
TTITLE11=Gratitude
TTITLE12=Smileng Buddha of Paso Vale
EXTD=YEAR: 2009
EXTT0=
EXTT1=
EXTT2=
EXTT3=
EXTT4=
EXTT5=
EXTT6=
EXTT7=
EXTT8=
EXTT9=
EXTT10=
EXTT11=
EXTT12=
PLAYORDER=
